<?xml version="1.0" standalone="no"?><!-- Generator: Gravit.io --><svg xmlns="http://www.w3.org/2000/svg" xmlns:xlink="http://www.w3.org/1999/xlink" style="isolation:isolate" viewBox="488 128 24 24" width="24" height="24"><path d=" M 492.667 128 C 492.298 128 492 128.298 492 128.667 C 492 129.035 492.298 129.333 492.667 129.333 L 493.333 129.333 L 493.333 136 C 493.333 137.453 491.377 141.777 489.948 144.935 C 488.535 148.06 488 149.295 488 149.867 C 488 150.665 488 152 500 152 C 512 152 512 150.665 512 149.867 C 512 149.296 511.465 148.06 510.052 144.936 C 508.623 141.777 506.667 137.453 506.667 136 L 506.667 129.333 L 507.333 129.333 C 507.702 129.333 508 129.035 508 128.667 C 508 128.298 507.702 128 507.333 128 L 492.667 128 Z  M 500.213 134.667 L 501.689 134.667 L 499.475 139.333 L 502.673 139.333 L 499.975 144 L 501.667 144 L 498 146.667 L 497.167 144 L 498.433 144 L 500.362 140.667 L 497.366 140.667 L 500.213 134.667 Z "/></svg>