<?xml version="1.0" standalone="no"?><!-- Generator: Gravit.io --><svg xmlns="http://www.w3.org/2000/svg" xmlns:xlink="http://www.w3.org/1999/xlink" style="isolation:isolate" viewBox="296 68 24 24" width="24" height="24"><path d=" M 308.417 68 L 302.707 69.719 L 303.873 71.875 L 309.54 70.156 L 308.417 68 Z  M 310.124 71.188 L 304.417 72.906 L 305.167 74.281 C 299.932 75.246 296 78.79 296 83 C 296 85.82 297.765 88.348 300.5 90 L 296 90 L 296 92 L 320 92 L 320 90 L 308 90 C 306.904 89.998 305.818 89.85 304.792 89.562 C 305.927 89.044 306.667 88.105 306.667 87 L 306.667 86.969 L 318.208 83.469 L 317.251 81.75 L 305.875 85.219 C 305.13 84.448 303.936 83.994 302.667 84 C 301.193 84 299.943 84.555 299.249 85.406 C 298.867 84.636 298.669 83.822 298.667 83 C 298.667 79.617 301.901 76.8 306.167 76.156 L 307.459 78.594 L 313.084 76.906 L 310.124 71.188 Z  M 313.584 77.906 L 308 79.687 L 308.541 80.687 L 310.541 81.407 L 313.333 80.5 L 314.251 79 L 313.584 77.906 Z  M 302.667 86 C 303.469 86 304 86.398 304 87 C 304 87.602 303.469 88 302.667 88 C 301.864 88 301.333 87.602 301.333 87 C 301.333 86.398 301.864 86 302.667 86 Z " /></svg>