<?xml version="1.0" standalone="no"?><!-- Generator: Gravit.io --><svg xmlns="http://www.w3.org/2000/svg" xmlns:xlink="http://www.w3.org/1999/xlink" style="isolation:isolate" viewBox="178.485 16.125 24.03 24" width="24.03" height="24"><path d=" M 190.515 16.125 C 186.61 16.124 182.948 18.024 180.702 21.219 L 182.327 22.375 C 184.199 19.707 187.256 18.12 190.515 18.125 C 196.05 18.125 200.515 22.59 200.515 28.125 C 200.515 33.66 196.05 38.125 190.515 38.125 C 187.256 38.129 184.2 36.543 182.327 33.875 L 180.702 35.031 C 182.948 38.226 186.609 40.127 190.515 40.125 C 197.132 40.125 202.515 34.742 202.515 28.125 C 202.515 21.508 197.132 16.125 190.515 16.125 Z  M 183.171 23.406 L 179.171 27.406 L 178.485 28.125 L 179.172 28.844 L 183.172 32.844 L 184.61 31.406 L 182.328 29.125 L 194.515 29.125 L 194.515 27.125 L 182.327 27.125 L 184.609 24.844 L 183.171 23.406 Z " fill="rgb(116,116,116)"/></svg>