<?xml version="1.0" standalone="no"?><!-- Generator: Gravit.io --><svg xmlns="http://www.w3.org/2000/svg" xmlns:xlink="http://www.w3.org/1999/xlink" style="isolation:isolate" viewBox="169 27 21.913 24" width="21.913" height="24"><path d=" M 189.933 44.761 C 189.638 45.119 189.244 45.316 188.827 45.316 C 188.409 45.316 188.015 45.118 187.72 44.761 C 187.425 44.403 187.261 43.927 187.261 43.421 C 187.261 42.915 187.425 42.439 187.72 42.081 L 188.7 40.895 L 182.043 40.895 C 181.18 40.895 180.478 40.045 180.478 39 C 180.478 37.955 181.18 37.105 182.043 37.105 L 188.7 37.105 L 187.72 35.919 C 187.425 35.564 187.26 35.082 187.261 34.579 C 187.261 34.072 187.425 33.596 187.72 33.239 C 188.015 32.881 188.409 32.684 188.827 32.684 C 189.244 32.684 189.638 32.881 189.933 33.239 L 190.913 34.425 L 190.913 27.632 C 190.913 27.283 190.679 27 190.391 27 L 169.522 27 C 169.234 27 169 27.283 169 27.632 L 169 50.368 C 169 50.717 169.234 51 169.522 51 L 190.391 51 C 190.679 51 190.913 50.717 190.913 50.368 L 190.913 43.575 L 189.933 44.761 Z  M 177.348 31.737 C 177.348 31.214 177.698 30.789 178.13 30.789 L 181.783 30.789 C 182.215 30.789 182.565 31.214 182.565 31.737 C 182.565 32.26 182.215 32.684 181.783 32.684 L 178.13 32.684 C 177.698 32.684 177.348 32.26 177.348 31.737 Z " fill="rgb(116,116,116)"/></svg>