<?xml version="1.0" standalone="no"?><!-- Generator: Gravit.io --><svg xmlns="http://www.w3.org/2000/svg" xmlns:xlink="http://www.w3.org/1999/xlink" style="isolation:isolate" viewBox="-72 106 24 24" width="24" height="24"><path d=" M -68 106 C -68.13 105.998 -68.257 106.042 -68.357 106.125 L -71.643 108.857 L -60.571 108.857 L -60.571 106 L -68 106 Z  M -59.429 106 L -59.429 108.857 L -48.357 108.857 L -51.625 106.125 C -51.732 106.042 -51.864 105.998 -52 106 L -59.429 106 Z  M -72 110 L -72 129.429 C -72 129.744 -71.744 130 -71.429 130 L -48.571 130 C -48.254 130 -48 129.746 -48 129.429 L -48 110 L -72 110 Z  M -62 112.857 L -58 112.857 C -57.543 112.857 -57.143 113.257 -57.143 113.714 C -57.143 114.171 -57.543 114.571 -58 114.571 L -62 114.571 C -62.457 114.571 -62.857 114.171 -62.857 113.714 C -62.857 113.257 -62.457 112.857 -62 112.857 Z  M -56.571 121.429 L -54.857 123.143 L -56 123.143 L -56 125.429 L -57.143 125.429 L -57.143 123.143 L -58.286 123.143 L -56.571 121.429 Z  M -52.571 121.429 L -50.857 123.143 L -52 123.143 L -52 125.429 L -53.143 125.429 L -53.143 123.143 L -54.286 123.143 L -52.571 121.429 Z  M -58.286 126 L -50.857 126 L -50.857 127.143 L -58.286 127.143 L -58.286 126 Z " /></svg>